<?xml version="1.0" encoding="utf-8"?><svg xmlns="http://www.w3.org/2000/svg" xmlns:xlink="http://www.w3.org/1999/xlink"><symbol viewBox="0 0 121 51" id="120" xmlns="http://www.w3.org/2000/svg"><path fill-rule="evenodd" clip-rule="evenodd" d="M41.3 0h38.357a24.212 24.212 0 0122.784 16.02l1.444 4.015a18.142 18.142 0 0017.072 12.003V50.51H0V32.038a18.142 18.142 0 0017.071-12.002l1.445-4.017A24.212 24.212 0 0141.299 0z"/></symbol><symbol viewBox="0 0 110 109" id="c-tabs-first-t" xmlns="http://www.w3.org/2000/svg"><path d="M0 25.515C0 11.423 11.423 0 25.515 0h36.04a25.514 25.514 0 0121.412 11.639l6.327 9.763a23.501 23.501 0 0019.722 10.72v76.474H0V25.514z"/></symbol><symbol viewBox="0 0 102 51" id="c-tabs-second-100" xmlns="http://www.w3.org/2000/svg"><path fill-rule="evenodd" clip-rule="evenodd" d="M42.272 0H60.63a24.212 24.212 0 0122.784 16.02l1.444 4.015a18.141 18.141 0 0017.071 12.003V50.51H.973V32.038a18.142 18.142 0 0017.071-12.002l1.444-4.017A24.212 24.212 0 0142.272 0z"/></symbol><symbol viewBox="0 0 111 51" id="c-tabs-second-110" xmlns="http://www.w3.org/2000/svg"><path fill-rule="evenodd" clip-rule="evenodd" d="M41.316 0h28.357a24.212 24.212 0 0122.784 16.02l1.445 4.015a18.142 18.142 0 0017.071 12.003V50.51H.016V32.038a18.141 18.141 0 0017.072-12.002l1.444-4.017A24.212 24.212 0 0141.316 0z"/></symbol><symbol viewBox="0 0 121 51" id="c-tabs-second-120" xmlns="http://www.w3.org/2000/svg"><path fill-rule="evenodd" clip-rule="evenodd" d="M41.3 0h38.357a24.212 24.212 0 0122.784 16.02l1.444 4.015a18.142 18.142 0 0017.072 12.003V50.51H0V32.038a18.142 18.142 0 0017.071-12.002l1.445-4.017A24.212 24.212 0 0141.299 0z"/></symbol><symbol viewBox="0 0 136 51" id="c-tabs-second-135" xmlns="http://www.w3.org/2000/svg"><path fill-rule="evenodd" clip-rule="evenodd" d="M41.3 0h52.997a24.212 24.212 0 0122.783 16.02l1.444 4.015a18.142 18.142 0 0017.072 12.003V50.51H0V32.038a18.142 18.142 0 0017.071-12.002l1.445-4.017A24.212 24.212 0 0141.299 0z"/></symbol><symbol viewBox="0 0 27 30" id="dislike" xmlns="http://www.w3.org/2000/svg"><path d="M7.034 22.966c-.7-1.397-2.682-3.617-3.91-4.89a1.501 1.501 0 00-1.084-.455c-.85 0-1.54-.69-1.54-1.54V4.048c0-.924.748-1.672 1.672-1.672.33 0 .652-.098.916-.296.318-.237.784-.6 1.372-1.09C5.41.198 6.836 0 7.43 0h13.463c.396 0 .99 0 1.584.99.576.96.395 2.574.395 2.574s1.584.594 1.98 2.376c.264 1.188-.396 2.573-.396 2.573s1.782.832 1.782 2.574c0 2.376-1.188 2.574-1.188 2.574s1.188.594 1.188 2.97c0 2.574-3.366 2.376-3.366 2.376h-8.855c-1.187 0-2.108 1.037-1.989 2.218.176 1.746.351 3.842.351 5.107 0 2.376-1.768 3.168-3.168 3.168-1.386 0-.89-3.96-2.177-6.534z"/></symbol><symbol viewBox="0 0 14 7" id="down" xmlns="http://www.w3.org/2000/svg"><path d="M1 .5l6 6 6-6"/></symbol><symbol viewBox="0 0 27 30" id="like" xmlns="http://www.w3.org/2000/svg"><path d="M7.04 6.54c-.7 1.4-2.684 3.621-3.913 4.896a1.503 1.503 0 01-1.085.456c-.852 0-1.542.69-1.542 1.541V25.48c0 .924.75 1.673 1.673 1.673.33 0 .654.098.918.296.318.238.785.602 1.373 1.092.951.793 2.378.99 2.973.99h13.477c.396 0 .99 0 1.585-.99.577-.962.397-2.577.397-2.577s1.585-.594 1.982-2.378c.264-1.19-.397-2.576-.397-2.576s1.784-.833 1.784-2.577c0-2.378-1.19-2.577-1.19-2.577s1.19-.594 1.19-2.973c0-2.576-3.37-2.378-3.37-2.378h-8.864c-1.188 0-2.11-1.038-1.991-2.22.176-1.748.352-3.846.352-5.113C12.392.793 10.622 0 9.22 0c-1.388 0-.892 3.964-2.18 6.54z"/></symbol><symbol viewBox="0 0 32 28" id="share" xmlns="http://www.w3.org/2000/svg"><path d="M2.62 27.694a2.12 2.12 0 002.118-2.09S5 24 5.476 23.077c.476-.924 2.123-3.513 4.938-5.227 1.836-1.118 4.17-1.74 6.2-2.08 1.199-.2 2.262-.297 3.005-.343v4.251c0 1.552 1.873 2.332 2.975 1.24l8.547-8.464c.69-.683.69-1.798 0-2.481l-8.547-8.465c-1.102-1.092-2.975-.31-2.975 1.24v4.106c-2.083.07-6.694.558-11.182 3.32-3.74 2.302-5.705 5.947-6.74 9.045C.667 22.3.52 25.058.5 25.574v.001c0 1.17.949 2.12 2.12 2.12z"/></symbol><symbol viewBox="0 0 235 122" id="tabs-first" xmlns="http://www.w3.org/2000/svg"><path d="M0 55C0 24.624 24.624 0 55 0h82.403a55.001 55.001 0 0141.64 19.067l11.965 13.866A55 55 0 00232.647 52H235l-20 70H0V55z"/></symbol><symbol viewBox="0 0 155 112" id="tabs-first-t" xmlns="http://www.w3.org/2000/svg"><path d="M0 36.218C0 16.215 16.215 0 36.218 0h52.808a36.217 36.217 0 0128.909 14.4l7.697 10.2c6.844 9.068 17.64 14.4 29.002 14.4l-13.053 72.932H0V36.218z"/></symbol><symbol viewBox="0 0 240 93" id="tabs-item" xmlns="http://www.w3.org/2000/svg"><path fill-rule="evenodd" clip-rule="evenodd" d="M81.351.182h77.298a45.796 45.796 0 0141.302 26.012l.541 1.13A43.806 43.806 0 00240 52.206v39.976H0V52.206a43.807 43.807 0 0039.508-24.882l.541-1.13A45.796 45.796 0 0181.352.182z"/></symbol><symbol viewBox="0 0 158 66" id="tabs-item-t" xmlns="http://www.w3.org/2000/svg"><path fill-rule="evenodd" clip-rule="evenodd" d="M56.159.12h46.427a31.633 31.633 0 0129.188 19.44l1.141 2.733A27.186 27.186 0 00158 39v26.22l-78.639-4.75L.61 65.22V39a27.259 27.259 0 0025.126-16.69l1.157-2.75A31.75 31.75 0 0156.159.12z"/></symbol><symbol viewBox="0 0 120 92" id="tabs-left" xmlns="http://www.w3.org/2000/svg"><g clip-path="url(#oclip0_207_6499)"><path fill-rule="evenodd" clip-rule="evenodd" d="M81.351 0h77.298a45.796 45.796 0 0141.302 26.012l.541 1.13A43.806 43.806 0 00240 52.023V92H0V52.024A43.807 43.807 0 0039.508 27.14l.541-1.13A45.796 45.796 0 0181.351 0z"/></g><defs><clipPath id="oclip0_207_6499"><path d="M0 0h120v92H0z"/></clipPath></defs></symbol><symbol viewBox="0 0 120 92" id="tabs-right" xmlns="http://www.w3.org/2000/svg"><g clip-path="url(#pclip0_207_6499)"><path fill-rule="evenodd" clip-rule="evenodd" d="M38.649 0h-77.297a45.796 45.796 0 00-41.303 26.012l-.54 1.13A43.807 43.807 0 01-120 52.023V92h240V52.024A43.807 43.807 0 0180.492 27.14l-.541-1.13A45.796 45.796 0 0038.649 0z"/></g><defs><clipPath id="pclip0_207_6499"><path transform="matrix(-1 0 0 1 120 0)" d="M0 0h120v92H0z"/></clipPath></defs></symbol></svg>