<svg width="28" height="27" viewBox="0 0 28 27" fill="none" xmlns="http://www.w3.org/2000/svg">
<path d="M18.7599 3.99024C14.6652 2.10333 9.86671 2.34306 6.49502 5.53688C3.20453 8.6611 2.09095 13.7032 4.37612 17.7322C5.40285 19.4809 6.8794 20.9226 8.65217 21.9072C10.425 22.8919 12.4292 23.3835 14.4564 23.331C18.7096 23.1918 22.3636 20.1449 23.6589 16.1237C25.1089 11.6268 22.8895 6.287 18.7599 3.99024ZM18.5241 14.3953C17.3074 15.38 16.0494 16.3144 14.7502 17.1986C14.1161 17.6355 12.8169 18.9463 12.0745 18.9076C10.9648 18.8535 10.8875 17.4035 10.8604 16.6573C10.8372 16.0115 10.8604 15.3619 10.8604 14.7239C10.8604 13.0922 10.8295 11.4605 10.787 9.82882C10.756 8.76937 10.5086 6.68913 12.1596 7.32326C13.3196 7.76405 14.3906 9.02843 15.3534 9.80175C16.4979 10.6949 20.3066 12.8177 18.5318 14.3953H18.5241Z" fill="#605DEC"/>
<path d="M22.1857 2.911C20.1558 1.08209 17.3563 0.308771 14.6922 0.061308C8.92325 -0.491617 4.11319 2.74474 1.49549 7.77906C-3.91003 18.1841 8.70672 29.6254 18.9146 25.2136C24.5598 22.7777 28.0398 16.5485 26.7367 10.505C25.9415 7.60564 24.3676 4.97934 22.1857 2.911ZM17.8513 23.4272C11.6647 25.666 4.23305 21.8071 2.55881 15.3576C0.923232 9.04731 6.43315 2.52434 12.6932 2.06808C18.2147 1.68142 23.0751 5.28897 24.5908 10.5746C26.1065 15.8603 22.6652 21.3238 17.8513 23.4272Z" fill="#605DEC"/>
</svg>
