<svg width="23" height="27" viewBox="0 0 23 27" fill="none" xmlns="http://www.w3.org/2000/svg">
<path d="M22.3043 3.93539C21.7478 2.65018 20.5995 1.66089 19.4026 0.949833C16.8146 -0.591525 13.8467 -0.167542 11.5148 1.57698C8.09199 4.13413 8.82513 8.95253 11.5943 11.6201H11.6164L8.64847 17.9754C8.50714 18.2713 8.37023 18.5672 8.23332 18.8587C7.66801 18.6467 7.07178 18.3508 7.16011 17.7855C7.24844 17.2202 7.83583 16.7256 7.92858 16.0896C7.95627 15.8809 7.91181 15.669 7.80256 15.4891C7.69332 15.3092 7.52585 15.172 7.32794 15.1003C6.65 14.7355 5.94756 14.4182 5.22568 14.1507C4.71337 13.9564 4.45721 13.8858 4.1878 14.4025C4.02881 14.7205 3.39283 15.6038 3.74616 15.7981C4.09947 15.9924 4.86353 16.1293 4.87236 16.6814C4.84494 17.0115 4.73399 17.3291 4.54996 17.6045C4.36888 17.8827 4.33355 17.918 3.85657 17.7546C3.63062 17.6959 3.42274 17.5821 3.25151 17.4234C3.23918 17.4156 3.22538 17.4104 3.21098 17.4082C3.19657 17.406 3.18185 17.4068 3.16776 17.4105C3.15367 17.4142 3.1405 17.4208 3.12907 17.4299C3.11764 17.4389 3.1082 17.4503 3.10135 17.4631C2.71269 18.289 2.31963 19.1149 1.96631 19.9584C1.94422 20.007 1.94422 20.0909 2.00605 20.1086C2.36389 20.1567 2.69358 20.3286 2.93794 20.5944C3.09251 20.8903 2.86286 21.5263 2.69503 21.7692C2.40796 22.1799 2.08997 21.8752 1.76756 21.6941C1.11834 21.3187 1.06092 21.4247 0.778268 21.8134C0.495612 22.202 0.0142136 23.0367 0.274787 23.4386C0.479478 23.6457 0.733191 23.7976 1.01234 23.8803C1.36125 24.057 1.71457 24.2292 2.07672 24.3882C2.5537 24.6134 3.29126 25.1478 3.73291 24.7327C4.10136 24.4532 4.38063 24.0727 4.53671 23.6374C4.63769 23.2805 4.78624 22.9388 4.97836 22.6216C5.30518 22.3434 5.47301 22.6216 5.79983 22.7673C5.96324 22.8424 6.12223 22.9219 6.28123 23.0058C6.13106 23.3194 5.98532 23.6374 5.83958 23.951C5.62249 24.3574 5.45635 24.7891 5.34493 25.2362C5.05786 26.6804 7.5046 27.3163 8.20682 26.8482C8.90904 26.38 9.20053 25.1743 9.5671 24.3794L11.422 20.4045C12.5173 18.0726 13.6921 15.6744 14.783 13.3381H14.8183C15.1672 13.413 15.5218 13.4588 15.8783 13.475C19.0626 13.6031 22.0614 11.5141 22.7768 8.41813C23.0311 6.90875 22.8677 5.35857 22.3043 3.93539ZM18.5458 7.38909C18.4037 7.94994 18.0717 8.44427 17.6064 8.78806C17.141 9.13185 16.571 9.30389 15.9931 9.27493C13.8599 9.19102 12.5924 6.18338 14.3767 4.85843C14.7823 4.52813 15.279 4.32922 15.8005 4.28819C16.322 4.24717 16.8437 4.36597 17.296 4.62878C17.7602 4.8757 18.1355 5.2618 18.3692 5.7329C18.5761 6.259 18.6371 6.83119 18.5458 7.38909Z" fill="#605DEC"/>
</svg>
