<svg width="19" height="26" viewBox="0 0 19 26" fill="none" xmlns="http://www.w3.org/2000/svg">
<path d="M1.99634 2.83143C2.03791 2.81646 2.08117 2.80669 2.12513 2.80235C6.76718 2.68602 11.4106 2.68602 16.0554 2.80235C16.7451 2.80235 17.6508 2.80235 18.0123 2.50322C18.3737 2.20409 18.4277 1.11143 18.1327 0.720901C17.6508 0.0478585 15.9474 0.238969 15.1954 0.243124C13.5793 0.247278 11.9673 0.193269 10.3554 0.151723C8.3944 0.106023 6.45836 0.0686314 4.50986 0.0894043C3.5917 0.0894043 1.76784 -0.234653 0.995085 0.351143C0.475762 0.741674 0.305424 1.98389 0.774892 2.49491C1.12495 2.75727 1.56131 2.87749 1.99634 2.83143Z" fill="#605DEC"/>
<path d="M4.30629 18.1869C3.55431 19.3128 2.78987 20.3099 2.37025 21.4524C2.32797 21.5612 2.31268 21.6787 2.32568 21.7947C2.33869 21.9107 2.37961 22.0219 2.44494 22.1187C2.51027 22.2154 2.59807 22.2949 2.70082 22.3504C2.80358 22.4058 2.91824 22.4355 3.03499 22.437C7.29482 22.5367 11.5547 22.5367 15.8145 22.437C15.9294 22.4359 16.0424 22.4073 16.1439 22.3536C16.2455 22.2998 16.3327 22.2225 16.3982 22.1281C16.4637 22.0337 16.5057 21.9249 16.5205 21.811C16.5353 21.697 16.5226 21.5812 16.4834 21.4732C16.1815 20.7295 15.7909 20.0251 15.3201 19.3751C14.3428 17.8195 13.2306 16.3528 11.9964 14.992C10.75 13.6667 10.239 12.6904 11.7305 11.1573C12.308 10.5632 13.0849 10.1727 13.6707 9.57028C15.0897 8.18014 16.1025 6.42908 16.5997 4.50584C16.6218 4.40164 16.6205 4.29386 16.5961 4.1902C16.5716 4.08654 16.5246 3.98956 16.4583 3.9062C16.392 3.82284 16.3081 3.75516 16.2126 3.708C16.1171 3.66083 16.0124 3.63535 15.9059 3.63338C11.5823 3.53367 7.25604 3.53367 2.92697 3.63338C2.82067 3.63473 2.71599 3.65966 2.62048 3.70635C2.52497 3.75304 2.44101 3.82034 2.37464 3.90339C2.30828 3.98645 2.26117 4.08319 2.2367 4.18665C2.21223 4.2901 2.21102 4.3977 2.23315 4.50168C2.42699 5.35282 2.75217 6.16858 3.19702 6.91965C3.65211 7.70759 4.17923 8.45167 4.7716 9.14235C5.52774 10.019 6.51237 10.5217 7.29759 11.3443C9.03836 13.164 7.65073 14.1112 6.40435 15.4532C5.63381 16.3075 4.93225 17.2216 4.30629 18.1869ZM5.84764 6.94042C5.76455 6.77424 5.68561 6.60806 5.61083 6.44187C5.55847 6.33646 5.53174 6.22017 5.5328 6.10247C5.53386 5.98477 5.56269 5.86899 5.61694 5.76454C5.67119 5.66008 5.74934 5.56991 5.84501 5.50135C5.94069 5.43279 6.05119 5.38779 6.16754 5.36999H6.70348C7.6715 5.32845 8.64367 5.32845 9.61169 5.32845C10.5797 5.32845 11.5519 5.32845 12.5199 5.35753H12.9769C13.1037 5.37511 13.2241 5.42426 13.327 5.50048C13.4299 5.57671 13.512 5.67755 13.5657 5.79376C13.6195 5.90997 13.6432 6.03782 13.6347 6.16559C13.6262 6.29335 13.5857 6.41692 13.517 6.52497L13.4422 6.64129C12.7733 7.88767 11.1614 9.79878 9.60338 10.1644C8.05788 9.84448 6.52068 8.17018 5.84764 6.94042Z" fill="#605DEC"/>
<path d="M17.119 23.2678C17.0997 23.2701 17.0802 23.2701 17.0609 23.2678C12.2831 23.3841 7.50531 23.3841 2.72754 23.2678C2.04619 23.2678 1.19035 23.2678 0.837209 23.5586C0.484069 23.8494 0.421751 24.9047 0.716726 25.2869C1.18619 25.9309 2.88542 25.7605 3.64155 25.7605C5.25353 25.7605 6.86551 25.8104 8.48164 25.8478C10.426 25.8976 12.3745 25.9309 14.323 25.9143C15.2411 25.9143 17.0692 26.2259 17.8378 25.6608C18.3571 25.2786 18.5274 24.0779 18.058 23.5835C17.7906 23.3735 17.459 23.262 17.119 23.2678Z" fill="#605DEC"/>
</svg>
