<svg width="22" height="21" viewBox="0 0 22 21" fill="none" xmlns="http://www.w3.org/2000/svg">
<g clip-path="url(#clip0_201_2430)">
<path d="M16.5767 14.2152C15.9532 13.6076 12.8875 11.1174 12.8789 10.4927C12.8702 9.86798 15.8493 7.47189 16.3429 7.00123C18.0749 5.28974 19.8531 3.57825 21.6775 1.86676C22.6388 0.933997 21.1752 -0.520771 20.2053 0.394877C18.0836 2.39732 15.9705 4.41688 13.9181 6.48779C13.4245 6.98412 12.6191 7.61737 11.9349 8.31052C11.8187 8.42137 11.6635 8.48332 11.5019 8.48332C11.3404 8.48332 11.1852 8.42137 11.0689 8.31052C10.4801 7.72862 9.81323 7.19805 9.33693 6.73595C7.1979 4.60515 5.01557 2.56847 2.98046 0.326417C2.07981 -0.65769 0.616267 0.805635 1.50825 1.78118C3.09304 3.50123 4.75577 5.13571 6.42716 6.77874C7.00738 7.35209 10.0557 9.79096 9.98643 10.5098C9.89117 11.5538 7.17192 13.5135 6.39252 14.2836C4.70381 15.9438 3.02376 17.5954 1.30907 19.2213C0.339145 20.1369 1.81135 21.5831 2.77262 20.6761C4.98093 18.588 7.16326 16.4743 9.29363 14.3093C9.76127 13.8386 10.4714 13.2824 11.0776 12.6663C11.1938 12.5554 11.3491 12.4935 11.5106 12.4935C11.6721 12.4935 11.8274 12.5554 11.9436 12.6663C12.4892 13.2054 13.104 13.6932 13.5197 14.1125C15.7107 16.2604 17.945 18.4083 20.0407 20.6761C20.9067 21.6516 22.4049 20.1968 21.513 19.2213C19.9195 17.4927 18.2568 15.8668 16.5767 14.2152Z" fill="#605DEC"/>
</g>
<defs>
<clipPath id="clip0_201_2430">
<rect width="20.7518" height="21" fill="white" transform="translate(0.988159)"/>
</clipPath>
</defs>
</svg>
