<svg width="14" height="14" viewBox="0 0 14 14" fill="none" xmlns="http://www.w3.org/2000/svg">
<g clip-path="url(#clip0_210_2133)">
<path d="M8.26968 8.27017C7.25925 9.31275 7.18577 10.6125 7.0985 13.4601C9.75317 13.4601 11.5857 13.4509 12.5319 12.5323C13.4504 11.5862 13.4596 9.6664 13.4596 7.09899C10.612 7.19085 9.31226 7.25974 8.26968 8.27017ZM0.599609 7.09899C0.599609 9.6664 0.608795 11.5862 1.52737 12.5323C2.4735 13.4509 4.30605 13.4601 6.96072 13.4601C6.86886 10.6125 6.79997 9.31275 5.78954 8.27017C4.74696 7.25974 3.44718 7.18625 0.599609 7.09899ZM6.96072 0.600098C4.31064 0.600098 2.4735 0.609283 1.52737 1.52785C0.608795 2.47398 0.599609 4.3938 0.599609 6.96121C3.44718 6.86935 4.74696 6.80045 5.78954 5.79003C6.79997 4.74745 6.87345 3.44767 6.96072 0.600098ZM8.26968 5.79003C7.25925 4.74745 7.18577 3.44767 7.0985 0.600098C9.75317 0.600098 11.5857 0.609283 12.5319 1.52785C13.4504 2.47398 13.4596 4.3938 13.4596 6.96121C10.612 6.86935 9.31226 6.80045 8.26968 5.79003Z" fill="#1F1F1F"/>
<path d="M13.4596 7.09899V6.96121C10.612 6.86935 9.31226 6.80045 8.26968 5.79003C7.25925 4.74745 7.18577 3.44767 7.0985 0.600098H6.96072C6.86886 3.44767 6.79997 4.74745 5.78954 5.79003C4.74696 6.80045 3.44718 6.87394 0.599609 6.96121V7.09899C3.44718 7.19085 4.74696 7.25974 5.78954 8.27017C6.79997 9.31275 6.87345 10.6125 6.96072 13.4601H7.0985C7.19036 10.6125 7.25925 9.31275 8.26968 8.27017C9.31226 7.25974 10.612 7.18625 13.4596 7.09899Z" fill="white"/>
</g>
<defs>
<clipPath id="clip0_210_2133">
<rect width="12.86" height="12.86" fill="white" transform="translate(0.599609 0.600098)"/>
</clipPath>
</defs>
</svg>
