<svg width="114" height="32" viewBox="0 0 114 32" fill="none" xmlns="http://www.w3.org/2000/svg">
<g clip-path="url(#clip0_1177_8165)">
<path fill-rule="evenodd" clip-rule="evenodd" d="M2.34315 2.34315C3.84344 0.842855 5.87827 0 8 0H32V24C32 26.1217 31.1571 28.1566 29.6569 29.6569C28.1566 31.1571 26.1217 32 24 32H8C5.87827 32 3.84344 31.1571 2.34315 29.6569C0.842855 28.1566 0 26.1217 0 24V8C0 5.87827 0.842855 3.84344 2.34315 2.34315ZM22.6027 11.9967H26.4435L22.0958 16.7733L26.437 23.9805H22.9862L19.9902 19.0609L18.9374 20.2047V23.9415H15.974V22.6417C14.783 23.6444 13.2672 24.1782 11.7108 24.143C9.54667 24.143 7.88948 23.5191 6.78469 22.2778C5.99755 21.3722 5.53952 20.2271 5.48493 19.0284H8.64334C8.64334 19.0284 8.74082 21.212 11.6978 21.212C12.8546 21.212 14.5832 20.7896 14.6287 19.3144C14.6742 17.8391 13.082 17.5337 11.4248 17.3192C9.32571 17.0463 6.46625 16.5524 5.77738 13.472C5.66308 12.8177 5.69098 12.1464 5.85919 11.5039C6.02739 10.8613 6.33196 10.2625 6.7522 9.74816C7.27149 9.11935 7.92994 8.61997 8.67548 8.28949C9.42103 7.95901 10.2332 7.8065 11.0479 7.84402C11.8965 7.7947 12.7461 7.92362 13.5419 8.22246C14.3377 8.52131 15.0621 8.98347 15.6685 9.57919C15.7812 9.7005 15.8851 9.82398 15.9805 9.94962V7.99999H18.9439V16L22.6027 11.9967ZM11.1064 10.619C9.62466 10.619 8.48737 11.6328 8.74732 12.7766C9.01742 13.9636 10.5197 14.175 12.1732 14.4076C13.5434 14.6004 15.0175 14.8078 15.9805 15.5971V12.7766H14.2713C13.7644 10.9179 12.4061 10.619 11.1064 10.619Z" fill="#B1EC52"/>
<path d="M45.3745 15.1608C45.2793 15.0039 45.1729 14.854 45.0561 14.7124C44.9154 14.5618 44.7533 14.4326 44.5752 14.329C44.3719 14.2074 44.1534 14.1134 43.9253 14.0495C43.6216 13.9733 43.309 13.9384 42.996 13.9456C42.8194 13.9489 42.6434 13.9663 42.4696 13.9975C42.247 14.0493 42.0294 14.1211 41.8197 14.212C41.5875 14.3375 41.3696 14.4878 41.1698 14.6604C40.9446 14.8673 40.7595 15.1141 40.6239 15.3883C40.4297 15.7378 40.2895 16.1146 40.208 16.5061C40.1016 17.0124 40.0514 17.5289 40.0585 18.0463C40.0504 18.6288 40.1181 19.2099 40.26 19.775C40.3715 20.24 40.5675 20.6806 40.8384 21.0747C41.0769 21.4127 41.3964 21.6853 41.7677 21.8676C42.1407 22.0617 42.5561 22.1599 42.9765 22.1535C43.4215 22.1702 43.8649 22.0904 44.2762 21.9196C44.5805 21.7766 44.8525 21.5732 45.0756 21.3217C45.2574 21.104 45.3983 20.8552 45.4915 20.5873C45.589 20.3404 45.6735 20.1064 45.7255 19.9374H48.195C48.0969 20.621 47.8768 21.2814 47.5451 21.8871C47.2538 22.4104 46.8657 22.8735 46.4014 23.2518C45.9364 23.6126 45.4071 23.8817 44.8416 24.0447C43.4765 24.4542 42.013 24.3901 40.6889 23.8627C40.0347 23.5804 39.4543 23.1512 38.9927 22.6084C38.511 22.0226 38.1508 21.3465 37.9334 20.6198C37.6763 19.7778 37.5535 18.9005 37.5695 18.0203C37.5598 17.3512 37.6318 16.6833 37.784 16.0317C37.8994 15.4849 38.0873 14.9559 38.3429 14.459C38.5847 14.0206 38.8866 13.6181 39.2397 13.2632C39.5659 12.933 39.9406 12.6547 40.351 12.4378C40.7522 12.2217 41.1776 12.0537 41.6182 11.9374C42.0578 11.8396 42.5067 11.7895 42.957 11.788C43.5396 11.7786 44.1208 11.8464 44.6857 11.9894C45.1406 12.1148 45.5774 12.2983 45.9854 12.5353C46.3453 12.7454 46.6717 13.0083 46.9537 13.3152C47.1991 13.5922 47.4168 13.8926 47.6036 14.212C47.7536 14.5113 47.8796 14.8221 47.9806 15.1413C48.0607 15.4234 48.1108 15.7131 48.13 16.0057H45.6865L45.5695 15.5962C45.518 15.4454 45.4527 15.2997 45.3745 15.1608Z" fill="#B1EC52"/>
<path d="M54.8108 15.1738H57.8392L54.2129 18.8456L58.0082 24.0057H55.0252L52.4257 20.2689L51.4964 21.2177V24.0057H49.2153V15.1738H51.5029V18.5272L54.8108 15.1738Z" fill="#B1EC52"/>
<path d="M57.9041 17.7157C58.0899 17.1655 58.3963 16.6637 58.8009 16.247C59.2012 15.8285 59.6865 15.5005 60.2241 15.2852C60.8206 15.0445 61.4591 14.9252 62.1023 14.9343C62.7561 14.9234 63.4056 15.0427 64.0129 15.2852C64.5476 15.499 65.0289 15.8273 65.4232 16.247C65.8127 16.685 66.1169 17.1919 66.32 17.7417C66.7184 18.9599 66.7184 20.2734 66.32 21.4915C66.1184 22.0421 65.8141 22.5493 65.4232 22.9863C65.0237 23.3998 64.5437 23.7271 64.0129 23.9481C63.4056 24.1906 62.7561 24.3098 62.1023 24.299C61.4591 24.3081 60.8206 24.1888 60.2241 23.9481C59.6903 23.7256 59.2064 23.3986 58.8009 22.9863C58.3871 22.549 58.0801 22.0218 57.9041 21.4461C57.4796 20.2322 57.4796 18.9101 57.9041 17.6963V17.7157ZM60.0942 20.5687C60.1453 20.8823 60.2627 21.1814 60.4386 21.4461C60.5983 21.713 60.8215 21.9363 61.0885 22.0959C61.3945 22.2569 61.7372 22.3353 62.0828 22.3234C62.4454 22.3399 62.806 22.2615 63.1291 22.0959C63.3907 21.9434 63.6132 21.732 63.779 21.4785C63.9493 21.2158 64.0663 20.9221 64.1234 20.6142C64.262 19.9476 64.262 19.2597 64.1234 18.5931C64.0652 18.2794 63.9484 17.9796 63.779 17.7093C63.6007 17.4333 63.35 17.2116 63.0544 17.0683C62.7587 16.925 62.4293 16.8658 62.1023 16.8969C61.7567 16.885 61.414 16.9634 61.108 17.1244C60.8426 17.2861 60.6198 17.5089 60.4581 17.7742C60.2767 18.038 60.1527 18.3369 60.0942 18.6516C60.0228 18.9806 59.9837 19.3158 59.9772 19.6524C59.9868 19.9609 60.0259 20.2677 60.0942 20.5687Z" fill="#B1EC52"/>
<path d="M70.9342 17.0324L70.9017 18.6766C70.8627 19.6059 70.7977 20.4182 70.7132 21.1201C70.6411 21.7179 70.4903 22.3035 70.2648 22.8618C70.0818 23.2834 69.7902 23.6489 69.4199 23.9211C69.012 24.1701 68.5392 24.2922 68.0617 24.272C67.7952 24.272 67.5808 24.272 67.4118 24.2395C67.2468 24.2128 67.0854 24.167 66.9309 24.103V22.1534L67.2299 22.2509C67.3682 22.2627 67.5074 22.2627 67.6458 22.2509C67.8149 22.2589 67.9804 22.2006 68.1072 22.0884C68.2776 21.9389 68.3998 21.7421 68.4581 21.523C68.5736 21.1438 68.6519 20.7542 68.6921 20.3598C68.7376 19.8658 68.7701 19.2355 68.7896 18.4556L68.8545 15.1152H75.9577V24.0056H73.6896V17.0324H70.9342Z" fill="#B1EC52"/>
<path d="M83.1844 15.1738H86.2388L82.593 18.8456L86.3948 24.0057H83.4119L80.8124 20.2689L79.883 21.2177V24.0057H77.5955V15.1738H79.883V18.5272L83.1844 15.1738Z" fill="#B1EC52"/>
<path d="M86.2844 17.7164C86.4724 17.1594 86.7782 16.6496 87.1812 16.2216C87.585 15.8043 88.0722 15.4766 88.6109 15.2598C89.2072 15.0186 89.8459 14.8992 90.4891 14.9089C91.1408 14.898 91.7881 15.0174 92.3932 15.2598C92.9321 15.4779 93.4143 15.8157 93.8034 16.2476C94.1975 16.6822 94.5023 17.1901 94.7003 17.7423C95.0987 18.9605 95.0987 20.274 94.7003 21.4921C94.5037 22.0451 94.1988 22.5532 93.8034 22.9869C93.4064 23.4033 92.9258 23.7311 92.3932 23.9487C91.7881 24.1911 91.1408 24.3105 90.4891 24.2996C89.8459 24.3093 89.2072 24.1899 88.6109 23.9487C88.076 23.7247 87.5902 23.3979 87.1812 22.9869C86.7768 22.56 86.4707 22.0499 86.2844 21.4921C85.8684 20.2768 85.8684 18.9577 86.2844 17.7423V17.7164ZM88.4809 20.5693C88.5371 20.8867 88.6613 21.1882 88.8449 21.4532C89.0039 21.7206 89.2273 21.944 89.4948 22.103C89.8031 22.264 90.1479 22.3423 90.4956 22.3305C90.8516 22.3436 91.2051 22.2653 91.5224 22.103C91.784 21.9505 92.0065 21.7391 92.1722 21.4856C92.3425 21.2229 92.4596 20.9292 92.5167 20.6213C92.6553 19.9547 92.6553 19.2668 92.5167 18.6002C92.4585 18.2865 92.3417 17.9867 92.1722 17.7164C91.9943 17.4381 91.7429 17.2144 91.4459 17.07C91.1489 16.9255 90.8178 16.8658 90.4891 16.8975C90.1414 16.8857 89.7966 16.964 89.4882 17.125C89.2229 17.2867 89.0001 17.5095 88.8384 17.7748C88.657 18.0386 88.533 18.3375 88.4744 18.6522C88.3999 18.9807 88.3607 19.3162 88.3575 19.653C88.3663 19.9619 88.4077 20.2691 88.4809 20.5693Z" fill="#B1EC52"/>
<path d="M101.816 15.2781C102.164 15.348 102.5 15.4707 102.811 15.642C103.096 15.8177 103.331 16.0639 103.493 16.3569C103.673 16.7104 103.758 17.1044 103.74 17.5006C103.749 17.72 103.722 17.9394 103.662 18.1505C103.617 18.3309 103.538 18.5009 103.428 18.6509C103.341 18.7876 103.228 18.9066 103.097 19.0019C102.972 19.0986 102.837 19.1815 102.694 19.2488C103.108 19.3724 103.467 19.6367 103.708 19.9962C103.947 20.3601 104.07 20.7888 104.059 21.2244C104.066 21.6109 103.997 21.995 103.857 22.3552C103.719 22.6828 103.511 22.9758 103.246 23.2131C102.97 23.4689 102.642 23.6618 102.284 23.7785C101.879 23.9178 101.452 23.986 101.024 23.9799H96.0715V15.1741H100.621C101.022 15.1705 101.422 15.2053 101.816 15.2781ZM100.79 18.5794C100.931 18.5424 101.066 18.4808 101.186 18.3975C101.287 18.3286 101.363 18.228 101.401 18.1115C101.45 17.9786 101.472 17.8372 101.466 17.6956C101.47 17.571 101.448 17.4469 101.401 17.3317C101.354 17.2218 101.28 17.1256 101.186 17.0522C101.071 16.9675 100.941 16.9057 100.803 16.8703C100.604 16.8158 100.398 16.7917 100.192 16.7988H98.3656V18.6444H100.127C100.349 18.6428 100.571 18.6211 100.79 18.5794ZM100.939 22.2772C101.111 22.2174 101.268 22.1222 101.401 21.9978C101.505 21.9046 101.58 21.7825 101.615 21.6469C101.65 21.5288 101.668 21.4062 101.667 21.2829C101.678 21.097 101.649 20.9108 101.582 20.737C101.537 20.5979 101.442 20.4801 101.316 20.4056C101.177 20.2996 101.01 20.2364 100.835 20.2236C100.601 20.187 100.364 20.1696 100.127 20.1716H98.3656V22.3812H100.127C100.401 22.3907 100.676 22.3556 100.939 22.2772Z" fill="#B1EC52"/>
<path d="M104.988 17.7164C105.172 17.1614 105.476 16.6538 105.878 16.2293C106.28 15.8048 106.77 15.4738 107.314 15.2598C107.908 15.0186 108.545 14.8992 109.186 14.9089C109.84 14.898 110.489 15.0173 111.097 15.2598C111.634 15.4799 112.116 15.8174 112.507 16.2476C112.901 16.6822 113.206 17.1901 113.404 17.7423C113.802 18.9605 113.802 20.274 113.404 21.4921C113.207 22.0451 112.902 22.5532 112.507 22.9869C112.116 23.3888 111.647 23.7071 111.129 23.9227C110.522 24.1652 109.872 24.2845 109.218 24.2736C108.577 24.2833 107.941 24.1639 107.347 23.9227C106.811 23.7004 106.325 23.3734 105.917 22.9609C105.513 22.534 105.207 22.0239 105.02 21.4661C104.596 20.2523 104.596 18.9302 105.02 17.7164H104.988ZM107.178 20.5693C107.234 20.8867 107.358 21.1882 107.542 21.4532C107.701 21.7201 107.925 21.9434 108.192 22.103C108.498 22.2632 108.84 22.3415 109.186 22.3305C109.542 22.3442 109.896 22.2658 110.213 22.103C110.475 21.9517 110.698 21.7401 110.863 21.4856C111.038 21.2247 111.157 20.9305 111.214 20.6213C111.344 19.9539 111.344 19.2676 111.214 18.6002C111.156 18.2853 111.037 17.9849 110.863 17.7164C110.694 17.4669 110.472 17.2582 110.213 17.1055C109.892 16.9486 109.536 16.8769 109.179 16.8975C108.834 16.8865 108.492 16.9648 108.185 17.125C107.92 17.2867 107.697 17.5095 107.535 17.7748C107.354 18.0386 107.23 18.3375 107.171 18.6522C107.1 18.9812 107.061 19.3164 107.054 19.653C107.066 19.9617 107.107 20.2685 107.178 20.5693Z" fill="#B1EC52"/>
</g>
<defs>
<clipPath id="clip0_1177_8165">
<rect width="113.703" height="32" fill="white"/>
</clipPath>
</defs>
</svg>
