<svg width="13" height="16" viewBox="0 0 13 16" fill="none" xmlns="http://www.w3.org/2000/svg">
<path fill-rule="evenodd" clip-rule="evenodd" d="M6.47055 2.82139L6.42822 2.8878L6.3859 2.82139C6.09174 2.36226 5.67711 1.76575 5.20813 1.24515C4.75535 0.74253 4.18593 0.234584 3.57196 0.0622781C3.24613 -0.0291659 2.89127 -0.0303723 2.5473 0.129511C2.21031 0.286149 1.93981 0.571382 1.72471 0.947841C1.50878 1.32575 1.40112 1.70365 1.42784 2.07416C1.45493 2.44981 1.61636 2.76448 1.84356 3.01669C2.27566 3.49636 2.9727 3.78158 3.61548 3.96197C4.2786 4.14807 4.9797 4.24774 5.50706 4.30134C5.74408 4.32543 5.94911 4.34052 6.10397 4.34985H6.75248C6.90733 4.34052 7.11236 4.32543 7.34938 4.30134C7.87674 4.24774 8.57785 4.14807 9.24097 3.96197C9.88374 3.78158 10.5808 3.49636 11.0129 3.01669C11.2401 2.76448 11.4015 2.44981 11.4286 2.07416C11.4553 1.70365 11.3477 1.32575 11.1317 0.947841C10.9166 0.571382 10.6461 0.286149 10.3091 0.129511C9.96518 -0.0303723 9.61032 -0.0291659 9.28448 0.0622781C8.67051 0.234584 8.1011 0.74253 7.64832 1.24515C7.17934 1.76575 6.7647 2.36226 6.47055 2.82139ZM4.46514 1.91446C4.86189 2.35488 5.22598 2.86984 5.5016 3.29521C5.01993 3.24246 4.43009 3.15195 3.88568 2.99916C3.28006 2.8292 2.81922 2.60568 2.58654 2.34738C2.48136 2.23062 2.43367 2.11902 2.42525 2.00223C2.41646 1.88031 2.44689 1.69962 2.59297 1.44395C2.73989 1.18682 2.87433 1.08025 2.96881 1.03633C3.05631 0.995663 3.15945 0.985144 3.30176 1.02508C3.62408 1.11554 4.03155 1.43314 4.46514 1.91446ZM7.35485 3.29521C7.63047 2.86984 7.99455 2.35488 8.3913 1.91446C8.8249 1.43314 9.23236 1.11554 9.55468 1.02508C9.69699 0.985144 9.80014 0.995663 9.88764 1.03633C9.98212 1.08025 10.1166 1.18682 10.2635 1.44395C10.4096 1.69962 10.44 1.88031 10.4312 2.00223C10.4228 2.11902 10.3751 2.23062 10.2699 2.34738C10.0372 2.60568 9.57638 2.8292 8.97076 2.99916C8.42636 3.15195 7.83652 3.24246 7.35485 3.29521Z" fill="white"/>
<path d="M6.92871 4.35229V9.70996H12.1989V9.70516C12.5962 9.43534 12.8571 8.97985 12.8571 8.46341V5.85229C12.8571 5.02387 12.1856 4.35229 11.3571 4.35229H6.92871Z" fill="white"/>
<path d="M12.1989 10.71H6.92871V15.2332H10.6989C11.5273 15.2332 12.1989 14.5616 12.1989 13.7332V10.71Z" fill="white"/>
<path d="M5.92871 15.2332V10.71H0.65918V13.7332C0.65918 14.5617 1.33076 15.2332 2.15918 15.2332H5.92871Z" fill="white"/>
<path d="M0.65918 9.70996H5.92871V4.35229H1.5C0.671573 4.35229 0 5.02387 0 5.85229V8.46341C0 8.98024 0.261388 9.43603 0.65918 9.70577V9.70996Z" fill="white"/>
</svg>
