<svg width="33" height="50" viewBox="0 0 33 50" fill="none" xmlns="http://www.w3.org/2000/svg">
<path d="M17.4828 1.04313C17.3817 0.441025 16.8605 0 16.25 0C15.6395 0 15.1183 0.441025 15.0172 1.04313L12.9953 13.0923C12.5024 16.0296 10.3115 18.3932 7.42007 19.1073L0.950297 20.7051C0.39215 20.843 0 21.3438 0 21.9187C0 22.4936 0.39215 22.9944 0.950296 23.1322L7.17566 24.6697C10.1723 25.4097 12.4049 27.9168 12.7942 30.9788L15.01 48.4076C15.0894 49.032 15.6206 49.5 16.25 49.5C16.8794 49.5 17.4106 49.032 17.49 48.4076L19.7058 30.9788C20.0951 27.9168 22.3277 25.4097 25.3243 24.6697L31.5497 23.1322C32.1078 22.9944 32.5 22.4936 32.5 21.9187C32.5 21.3438 32.1078 20.843 31.5497 20.7051L25.0799 19.1073C22.1885 18.3932 19.9976 16.0296 19.5047 13.0923L17.4828 1.04313Z" fill="#F2FFA3"/>
</svg>
