<svg width="89" height="83" viewBox="0 0 89 83" fill="none" xmlns="http://www.w3.org/2000/svg">
<path fill-rule="evenodd" clip-rule="evenodd" d="M70.7321 0C71.4365 0 72.0375 0.509706 72.1526 1.2047L74.2216 13.7037C74.8946 17.7696 77.9168 21.0481 81.9146 22.049L87.9099 23.55C88.5506 23.7104 89 24.2862 89 24.9467C89 25.6072 88.5506 26.183 87.9099 26.3434L82.2401 27.763C78.0988 28.7998 75.0198 32.2743 74.4886 36.5104L72.1607 55.073C72.0704 55.7933 71.458 56.3337 70.7321 56.3337C70.0061 56.3337 69.3937 55.7933 69.3034 55.073L66.9755 36.5103C66.4443 32.2743 63.3654 28.7998 59.224 27.763L53.5543 26.3434C52.9135 26.183 52.4641 25.6072 52.4641 24.9467C52.4641 24.2862 52.9135 23.7104 53.5543 23.55L59.5495 22.049C63.5473 21.0481 66.5695 17.7696 67.2426 13.7038L69.3116 1.2047C69.4266 0.509706 70.0276 0 70.7321 0ZM70.7321 10.2565L70.0836 14.174C69.2232 19.3718 65.3596 23.5629 60.2489 24.8424L59.8324 24.9467L59.9234 24.9695C65.2176 26.295 69.1537 30.7368 69.8328 36.152L70.7321 43.3225L71.6313 36.152C72.3104 30.7368 76.2465 26.295 81.5407 24.9695L81.6317 24.9467L81.2153 24.8424C76.1045 23.5629 72.2409 19.3717 71.3805 14.174L70.7321 10.2565Z" fill="#E3E4EF"/>
<path d="M10.4358 59.4982C10.5945 58.8552 11.1714 58.4034 11.8337 58.4034C12.496 58.4034 13.0728 58.8552 13.2316 59.4982L13.3907 60.1427C14.4301 64.3532 17.7176 67.6407 21.9281 68.6801L22.5726 68.8392C23.2156 68.998 23.6674 69.5748 23.6674 70.2371C23.6674 70.8994 23.2156 71.4763 22.5726 71.635L21.9281 71.7941C17.7176 72.8335 14.4301 76.121 13.3907 80.3315L13.2316 80.976C13.0728 81.619 12.496 82.0708 11.8337 82.0708C11.1714 82.0708 10.5945 81.619 10.4358 80.976L10.2767 80.3315C9.23727 76.121 5.94978 72.8335 1.73928 71.7941L1.09476 71.635C0.451788 71.4763 1.6503e-05 70.8994 1.6503e-05 70.2371C1.6503e-05 69.5748 0.451788 68.998 1.09476 68.8392L1.73928 68.6801C5.94978 67.6407 9.23727 64.3532 10.2767 60.1427L10.4358 59.4982Z" fill="#F2FFA3"/>
</svg>
