<svg width="62" height="58" viewBox="0 0 62 58" fill="none" xmlns="http://www.w3.org/2000/svg">
<path fill-rule="evenodd" clip-rule="evenodd" d="M12.7257 0.761353C12.2349 0.761353 11.8162 1.11643 11.7361 1.60058L10.2948 10.3078C9.82594 13.1402 7.72054 15.4241 4.93556 16.1213L0.759113 17.167C0.312761 17.2787 -0.000312805 17.6798 -0.000312805 18.14C-0.000312805 18.6001 0.312761 19.0012 0.759113 19.113L4.70881 20.1018C7.59381 20.8241 9.73871 23.2446 10.1088 26.1955L11.7304 39.1268C11.7934 39.6286 12.22 40.005 12.7257 40.005C13.2314 40.005 13.658 39.6286 13.7209 39.1268L15.3426 26.1955C15.7126 23.2446 17.8575 20.8241 20.7425 20.1018L24.6922 19.113C25.1386 19.0012 25.4517 18.6001 25.4517 18.14C25.4517 17.6798 25.1386 17.2787 24.6922 17.167L20.5158 16.1213C17.7308 15.4241 15.6254 13.1402 15.1566 10.3078L13.7152 1.60058C13.6351 1.11643 13.2164 0.761353 12.7257 0.761353ZM12.7257 7.90631L13.1774 10.6354C13.7768 14.2563 16.4683 17.176 20.0286 18.0673L20.3187 18.14L20.2553 18.1558C16.5672 19.0792 13.8252 22.1735 13.3521 25.9459L12.7257 30.9411L12.0993 25.9459C11.6262 22.1735 8.88416 19.0792 5.19603 18.1558L5.13264 18.14L5.42278 18.0673C8.98305 17.176 11.6746 14.2563 12.2739 10.6354L12.7257 7.90631Z" fill="#E3E4EF"/>
<path d="M54.7302 42.2094C54.6196 41.7615 54.2177 41.4468 53.7564 41.4468C53.295 41.4468 52.8932 41.7615 52.7826 42.2094L52.6717 42.6584C51.9476 45.5916 49.6575 47.8817 46.7243 48.6058L46.2753 48.7167C45.8274 48.8272 45.5127 49.2291 45.5127 49.6905C45.5127 50.1518 45.8274 50.5537 46.2753 50.6643L46.7243 50.7751C49.6575 51.4992 51.9476 53.7894 52.6717 56.7225L52.7826 57.1715C52.8932 57.6194 53.295 57.9341 53.7564 57.9341C54.2177 57.9341 54.6196 57.6194 54.7302 57.1715L54.841 56.7225C55.5651 53.7894 57.8553 51.4992 60.7884 50.7751L61.2374 50.6643C61.6853 50.5537 62.0001 50.1518 62.0001 49.6905C62.0001 49.2291 61.6853 48.8272 61.2374 48.7167L60.7884 48.6058C57.8553 47.8817 55.5651 45.5916 54.841 42.6584L54.7302 42.2094Z" fill="#F2FFA3"/>
</svg>
