<svg width="26" height="38" viewBox="0 0 26 38" fill="none" xmlns="http://www.w3.org/2000/svg">
<path fill-rule="evenodd" clip-rule="evenodd" d="M13 0.75C13.6095 0.75 14.1301 1.18954 14.2323 1.79037L15.0974 6.876C15.8105 11.0679 18.9478 14.4344 23.0791 15.4409L24.2959 15.7373C24.8559 15.8738 25.25 16.3754 25.25 16.9518C25.25 17.5282 24.8559 18.0299 24.2959 18.1663L23.4177 18.3802C19.1343 19.4238 15.9361 22.9976 15.3725 27.3701L14.2397 36.1598C14.1594 36.7832 13.6286 37.25 13 37.25C12.3714 37.25 11.8406 36.7832 11.7603 36.1598L10.6275 27.3701C10.0639 22.9976 6.86567 19.4238 2.58229 18.3802L1.70413 18.1663C1.14412 18.0299 0.75 17.5282 0.75 16.9518C0.75 16.3754 1.14412 15.8738 1.70413 15.7373L2.92089 15.4409C7.05218 14.4344 10.1895 11.0679 10.9026 6.87599L11.7677 1.79037C11.8699 1.18954 12.3905 0.75 13 0.75ZM13 8.86594C11.9242 12.4588 9.36445 15.4102 5.99826 16.9931C9.62873 18.8291 12.2532 22.2773 13 26.3635C13.7468 22.2773 16.3713 18.8291 20.0017 16.9931C16.6355 15.4102 14.0758 12.4588 13 8.86594Z" fill="#E3E4EF"/>
</svg>
