<svg width="24" height="25" viewBox="0 0 24 25" fill="none" xmlns="http://www.w3.org/2000/svg">
<path fill-rule="evenodd" clip-rule="evenodd" d="M10.9888 22.8096C10.9592 22.3613 11.1258 21.9157 11.4951 21.5714C13.3624 19.7205 15.212 17.862 17.044 15.9957L17.5792 16.521L17.0425 15.9971C17.1736 15.8629 17.4403 15.6202 17.7562 15.3329L17.7563 15.3328C17.9394 15.1663 18.1389 14.9848 18.3381 14.8007C18.4709 14.6779 18.606 14.5519 18.7406 14.4244L2.62939 14.4244C2.18293 14.4244 1.75851 14.2425 1.44846 13.9249C1.13901 13.6079 0.968282 13.1817 0.968282 12.741C0.968282 12.3003 1.13901 11.8742 1.44846 11.5572C1.75851 11.2396 2.18293 11.0577 2.62939 11.0577L18.9867 11.0577C18.2881 10.3586 17.5658 9.68463 16.8212 9.0369L16.7988 9.01736L16.7707 8.98877C15.0365 7.21997 13.2952 5.44399 11.6283 3.57201L11.626 3.56937C10.9064 2.75348 11.1983 1.75217 11.7215 1.22089C11.9876 0.950669 12.3647 0.73661 12.8021 0.71024C13.2643 0.682374 13.7086 0.870784 14.0414 1.25448C16.2226 3.66644 18.4883 5.98753 20.7657 8.32047L20.7721 8.32713C20.9678 8.53259 21.2275 8.76016 21.5441 9.03766L21.5441 9.03766L21.5609 9.05241C21.8734 9.32625 22.2289 9.63892 22.558 9.97658C23.1911 10.6261 23.8794 11.517 23.8794 12.6166C23.8794 13.1899 23.6728 13.7187 23.4038 14.1747C23.1338 14.6324 22.7748 15.0607 22.4079 15.4453C22.0393 15.8316 21.6422 16.1948 21.2868 16.5151L21.1364 16.6505C20.8384 16.9185 20.5855 17.146 20.3882 17.3461C18.248 19.593 16.0634 21.7762 13.8275 23.942C13.4611 24.2997 13.0056 24.452 12.5547 24.4098C12.125 24.3696 11.7517 24.1592 11.4855 23.8873C11.2199 23.6159 11.0172 23.2386 10.9888 22.8096Z" fill="#605DEC"/>
</svg>
