<svg width="24" height="25" viewBox="0 0 24 25" fill="none" xmlns="http://www.w3.org/2000/svg">
<path fill-rule="evenodd" clip-rule="evenodd" d="M13.8588 22.8096C13.8885 22.3613 13.7219 21.9157 13.3525 21.5714C11.4852 19.7205 9.63564 17.862 7.80368 15.9957L7.26845 16.521L7.80513 15.9971C7.67407 15.8629 7.40731 15.6202 7.09146 15.3329L7.09137 15.3328C6.9083 15.1663 6.70875 14.9848 6.50957 14.8007C6.37677 14.6779 6.24165 14.5519 6.10701 14.4244L22.2183 14.4244C22.6647 14.4244 23.0891 14.2425 23.3992 13.9249C23.7086 13.6079 23.8794 13.1817 23.8794 12.741C23.8794 12.3003 23.7086 11.8742 23.3992 11.5572C23.0891 11.2396 22.6647 11.0577 22.2183 11.0577L5.86091 11.0577C6.55954 10.3586 7.28181 9.68463 8.02643 9.0369L8.04888 9.01736L8.07692 8.98877C9.81118 7.21997 11.5525 5.44399 13.2193 3.57201L13.2217 3.56937C13.9413 2.75348 13.6494 1.75217 13.1262 1.22089C12.8601 0.950669 12.4829 0.73661 12.0456 0.71024C11.5834 0.682374 11.1391 0.870784 10.8063 1.25448C8.62504 3.66644 6.35934 5.98753 4.08195 8.32047L4.07553 8.32713C3.87985 8.53259 3.62019 8.76016 3.30356 9.03766L3.30355 9.03766L3.28673 9.05241C2.97429 9.32625 2.6188 9.63892 2.28969 9.97658C1.65657 10.6261 0.968263 11.517 0.968263 12.6166C0.968263 13.1899 1.17488 13.7187 1.44385 14.1747C1.7139 14.6324 2.07285 15.0607 2.43977 15.4453C2.80832 15.8316 3.20541 16.1948 3.56082 16.5151L3.71125 16.6505C4.00927 16.9185 4.26216 17.146 4.45947 17.3461C6.59967 19.593 8.78428 21.7762 11.0201 23.942C11.3866 24.2997 11.8421 24.452 12.293 24.4098C12.7227 24.3696 13.0959 24.1592 13.3621 23.8873C13.6278 23.6159 13.8305 23.2386 13.8588 22.8096Z" fill="#605DEC"/>
</svg>
