<svg width="25" height="26" viewBox="0 0 25 26" fill="none" xmlns="http://www.w3.org/2000/svg">
<path d="M15.7026 2.16776C10.6762 -1.30754 3.20607 0.777641 0.989194 6.56494C0.438765 7.9801 0.206548 9.49905 0.309024 11.014C0.4115 12.529 0.846156 14.0028 1.58215 15.331C2.31814 16.6591 3.33743 17.809 4.56768 18.699C5.79793 19.589 7.20899 20.1973 8.70072 20.4808C10.0953 20.6931 11.5204 20.5677 12.8565 20.115C13.5735 19.8809 15.9952 18.4395 15.6294 18.4103C16.5878 18.52 20.8533 23.9708 22.3605 25.5072C22.5934 25.7401 22.9092 25.8709 23.2385 25.8709C23.5678 25.8709 23.8836 25.7401 24.1165 25.5072C24.3493 25.2744 24.4801 24.9585 24.4801 24.6292C24.4801 24.2999 24.3493 23.9841 24.1165 23.7513C21.8703 21.5051 19.6242 19.259 17.378 17.0128C20.9631 12.3303 21.0289 5.79672 15.7026 2.16776ZM14.9124 16.0983C13.2943 17.7646 11.181 18.2932 8.65682 17.7298C3.98893 16.6909 1.13552 10.6914 3.82797 6.46251C9.4909 -2.78547 22.4922 7.75752 14.9124 16.0983Z" fill="#605DEC"/>
</svg>
