<svg width="55" height="59" viewBox="0 0 55 59" fill="none" xmlns="http://www.w3.org/2000/svg">
<path d="M40.9038 44.8013L41.0471 44.8878C43.7853 46.5418 47.2146 46.5418 49.9529 44.8878L50.0962 44.8013L50.0096 44.9446C48.3557 47.6828 48.3557 51.1121 50.0096 53.8503L50.0962 53.9937L49.9529 53.9071C47.2146 52.2531 43.7853 52.2532 41.0471 53.9071L40.9038 53.9937L40.9904 53.8503C42.6443 51.1121 42.6443 47.6828 40.9904 44.9446L40.9038 44.8013Z" fill="#E3E4EF" stroke="#E3E4EF" stroke-width="1.625" stroke-linejoin="round"/>
<path d="M11.1296 1.89746L10.4182 6.1952C9.75269 10.2158 6.76409 13.4577 2.81084 14.4475L2 14.6505L2.5283 14.7827C6.62353 15.808 9.6682 19.2439 10.1935 23.4327L11.1296 30.8975L12.0658 23.4327C12.5911 19.2439 15.6357 15.808 19.731 14.7827L20.2593 14.6505L19.4484 14.4475C15.4952 13.4577 12.5066 10.2158 11.841 6.1952L11.1296 1.89746Z" fill="#F2FFA3" stroke="#F2FFA3" stroke-width="2.14815" stroke-linejoin="round"/>
</svg>
