<svg width="46" height="43" viewBox="0 0 46 43" fill="none" xmlns="http://www.w3.org/2000/svg">
<path d="M9.65705 1.15674L8.98243 5.23218C8.35132 9.04478 5.51731 12.119 1.76854 13.0576L0.999637 13.2501L1.50061 13.3755C5.38402 14.3478 8.27121 17.6059 8.76934 21.5781L9.65705 28.6567L10.5448 21.5781C11.0429 17.6059 13.9301 14.3478 17.8135 13.3755L18.3145 13.2501L17.5456 13.0576C13.7968 12.119 10.9628 9.04478 10.3317 5.23218L9.65705 1.15674Z" stroke="#E3E4EF" stroke-width="2" stroke-linejoin="round"/>
<path d="M39.7037 31.3047L39.7364 31.4371C40.3611 33.9677 42.337 35.9436 44.8675 36.5683L45 36.601L44.8675 36.6337C42.337 37.2584 40.3611 39.2342 39.7364 41.7648L39.7037 41.8973L39.671 41.7648C39.0463 39.2342 37.0704 37.2584 34.5399 36.6337L34.4074 36.601L34.5399 36.5683C37.0704 35.9436 39.0463 33.9677 39.671 31.4371L39.7037 31.3047Z" fill="#F2FFA3" stroke="#F2FFA3" stroke-width="1.32407" stroke-linejoin="round"/>
</svg>
