<svg width="13" height="11" viewBox="0 0 13 11" fill="none" xmlns="http://www.w3.org/2000/svg">
<path fill-rule="evenodd" clip-rule="evenodd" d="M1.02684 4.61243C4.47814 3.1004 6.77955 2.10357 7.93107 1.62196C11.2189 0.246843 11.9021 0.00797179 12.3473 8.41004e-05C12.4453 -0.00165071 12.6643 0.0227557 12.8061 0.138493C12.9259 0.236219 12.9588 0.368233 12.9746 0.460889C12.9904 0.553544 13.01 0.764615 12.9944 0.92954C12.8162 2.81196 12.0453 7.38011 11.6531 9.48846C11.4871 10.3806 11.1604 10.6797 10.844 10.709C10.1565 10.7726 9.63444 10.2521 8.96855 9.81317C7.92656 9.12634 7.33791 8.69879 6.32648 8.02857C5.1576 7.25402 5.91534 6.82831 6.58148 6.13259C6.75581 5.95051 9.78501 3.17992 9.84364 2.92858C9.85097 2.89715 9.85777 2.77998 9.78855 2.71811C9.71933 2.65624 9.61716 2.67739 9.54343 2.69422C9.43892 2.71807 7.77434 3.82441 4.54967 6.01324C4.07719 6.33949 3.64922 6.49845 3.26578 6.49012C2.84307 6.48094 2.02994 6.24978 1.42546 6.0522C0.684042 5.80986 0.0947779 5.68173 0.14609 5.27015C0.172816 5.05578 0.466398 4.83654 1.02684 4.61243Z" fill="#1F1F1F"/>
</svg>
