<svg width="14" height="8" viewBox="0 0 14 8" fill="none" xmlns="http://www.w3.org/2000/svg">
<path fill-rule="evenodd" clip-rule="evenodd" d="M13.1263 0.924389C13.2216 0.644775 13.1263 0.44142 12.7042 0.44142H11.3017C10.9476 0.44142 10.7842 0.619357 10.6889 0.810002C10.6889 0.810002 9.96723 2.43684 8.9596 3.49175C8.6328 3.79678 8.48301 3.89846 8.306 3.89846C8.21068 3.89846 8.08813 3.79678 8.08813 3.51717V0.911679C8.08813 0.581227 7.9792 0.428711 7.67963 0.428711H5.47373C5.25586 0.428711 5.11969 0.581227 5.11969 0.733743C5.11969 1.05149 5.62351 1.12775 5.67798 2.01742V3.9493C5.67798 4.36872 5.59628 4.44498 5.41926 4.44498C4.94268 4.44498 3.78526 2.80543 3.0908 0.937099C2.95464 0.568518 2.81847 0.428711 2.46444 0.428711H1.0483C0.6398 0.428711 0.571716 0.606646 0.571716 0.797292C0.571716 1.14045 1.0483 2.86898 2.79124 5.15672C3.94866 6.72002 5.59628 7.55886 7.0805 7.55886C7.9792 7.55886 8.08813 7.36821 8.08813 7.05047V5.86847C8.08813 5.48718 8.16983 5.42363 8.45578 5.42363C8.66003 5.42363 9.02768 5.52531 9.8583 6.27518C10.8115 7.16486 10.9749 7.57157 11.5059 7.57157H12.9084C13.3169 7.57157 13.5076 7.38092 13.3986 7.01234C13.2761 6.64376 12.8131 6.10995 12.214 5.47447C11.8872 5.11859 11.397 4.72459 11.2472 4.53395C11.043 4.27975 11.0974 4.17808 11.2472 3.9493C11.2336 3.9493 12.9493 1.68697 13.1263 0.924389Z" fill="#1F1F1F"/>
</svg>
