<svg width="14" height="11" viewBox="0 0 14 11" fill="none" xmlns="http://www.w3.org/2000/svg">
<path d="M6.7317 0.798859C4.66131 0.798859 1.97408 1.31074 1.97408 1.31074L1.96732 1.31837C1.02435 1.46718 0.30191 2.26674 0.30191 3.23913V5.4848V5.48576V8.41313V8.41408C0.302831 8.87848 0.471494 9.32735 0.777615 9.68008C1.08374 10.0328 1.50726 10.2663 1.97215 10.3387L1.97408 10.3415C1.97408 10.3415 4.66131 10.8543 6.7317 10.8543C8.80209 10.8543 11.4893 10.3415 11.4893 10.3415L11.4903 10.3406C11.9557 10.2684 12.3797 10.0347 12.686 9.68154C12.9924 9.32839 13.161 8.87895 13.1615 8.41408V8.41313V5.48576V5.4848V3.23913C13.1608 2.77456 12.9922 2.32547 12.6861 1.97254C12.38 1.6196 11.9563 1.38596 11.4912 1.3136L11.4893 1.31074C11.4893 1.31074 8.80209 0.798859 6.7317 0.798859ZM5.267 3.6159L9.22379 5.86171L5.267 8.10752V3.6159Z" fill="#1F1F1F"/>
</svg>
